<?xml version="1.0" encoding="UTF-8"?><svg id="Layer_1" xmlns="http://www.w3.org/2000/svg" xmlns:xlink="http://www.w3.org/1999/xlink" viewBox="0 0 447.11 65.87"><defs><style>.cls-1{fill:#fff;}.cls-2{fill:none;stroke:url(#linear-gradient);stroke-linecap:round;stroke-miterlimit:10;stroke-width:.45px;}</style><linearGradient id="linear-gradient" x1="0" y1="30.68" x2="447.11" y2="30.68" gradientTransform="translate(0 90) scale(1 -1)" gradientUnits="userSpaceOnUse"><stop offset="0" stop-color="#c99a44"/><stop offset=".51" stop-color="#e4c06a"/><stop offset="1" stop-color="#f0e1b2"/></linearGradient></defs><line class="cls-2" x1=".22" y1="59.32" x2="446.89" y2="59.32"/><g><path class="cls-1" d="m52.96.34v.69h-18.62v20.69h16.72v.69h-16.72v25.52h20.44v.69h-27.31v-15.17h-15.89l-7.86,15.17h-.99L27.46.34h25.5Zm-25.49,32.42V2.83l-15.56,29.93s15.56,0,15.56,0Z"/><path class="cls-1" d="m64.98.9c5.33-.37,10.05-.55,14.14-.55,11.36,0,17.04,3.79,17.04,11.38,0,3.22-.78,6.09-2.35,8.62-1.56,2.53-4.25,4.21-8.07,5.04l13.79,23.24h-6.41l-13.52-22.83h-8.9v22.83h-5.73V.9h.01Zm14.14.14c-2.67,0-5.47.16-8.41.48v23.59h10.21c6.48-.28,9.73-4.69,9.73-13.24,0-3.49-.97-6.17-2.9-8.04-1.93-1.86-4.81-2.79-8.62-2.79h0Z"/><path class="cls-1" d="m107.13,1.03V.34h12.28v.69h-3.38v46.9h3.38v.69h-12.28v-.69h3.17V1.03h-3.17Z"/><path class="cls-1" d="m128.5,48.63h-.83L148.31.34l.76-.34,17.38,48.63h-5.86l-5.38-15.17h-20.14l-6.55,15.17h0Zm17.66-40.83l-10.83,24.97h19.66s-8.83-24.97-8.83-24.97Z"/><path class="cls-1" d="m230.59.34c.87.87,1.31,2,1.31,3.38,0,1.15-.25,2.32-.76,3.52l-17.66,41.38-.76.34L195.34.34h5.86l14.42,40.83,14.69-33.94c.51-1.15.76-2.35.76-3.59s-.34-2.21-1.04-2.9l.55-.41h0Z"/><path class="cls-1" d="m251.73,48.9c-4.85,0-8.79-1.38-11.83-4.14-3.04-2.76-4.55-7.01-4.55-12.76s1.58-10.21,4.72-13.38c3.15-3.17,7.15-4.76,12-4.76s8.79,1.38,11.83,4.14c3.03,2.76,4.55,7.01,4.55,12.76s-1.58,10.21-4.72,13.38c-3.15,3.17-7.15,4.76-12,4.76h0Zm.45-34.49c-3.5,0-6.39,1.55-8.69,4.66-2.3,3.1-3.45,7.43-3.45,12.97s1.06,9.65,3.17,12.31c2.11,2.67,4.92,4,8.42,4s6.39-1.55,8.69-4.66c2.3-3.1,3.45-7.43,3.45-12.97s-1.06-9.64-3.17-12.31c-2.12-2.67-4.92-4-8.42-4Z"/><path class="cls-1" d="m282.46,60.97c-1.47,3.26-3.29,4.9-5.45,4.9-.97,0-2.09-.16-3.38-.48v-.55c1.06.28,2,.41,2.83.41,2.34,0,4.14-1.43,5.38-4.28l5.79-12.35h-.07l-12.83-34.49h4.83l10.69,28.76,10.55-21.86c.55-.97.83-2.11.83-3.45s-.37-2.35-1.1-3.04l.41-.41c.18.09.42.37.72.83s.48.87.55,1.24c.07.37.1.71.1,1.03,0,1.24-.28,2.51-.83,3.79l-13.24,27.59-5.79,12.35h.01Z"/><path class="cls-1" d="m336.67,48.63c-3.13,0-5.27-.6-6.41-1.79-1.06-1.01-1.59-1.89-1.59-2.62v-1.45c-2.25,4.09-5.86,6.14-10.83,6.14-5.79,0-9.08-2.62-9.86-7.86-.09-.55-.14-1.11-.14-1.69s.09-1.21.28-1.9c.18-.69.71-1.45,1.59-2.28,1.75-1.66,5.59-2.67,11.52-3.04,1.47-.14,2.83-.21,4.07-.21s2.37.05,3.38.14v-11.45c-.09-.05-.09-.26,0-.66.09-.39.01-.9-.24-1.52s-.59-1.23-1-1.83-1.15-1.11-2.21-1.55c-1.06-.44-2.44-.66-4.14-.66s-3.69.31-5.97.93-3.94,1.23-5,1.83l-.28-.48c4.09-1.88,8.25-2.83,12.48-2.83,4.74,0,7.86.85,9.38,2.55,1.2,1.33,1.79,2.74,1.79,4.21v23.11c0,1.33.26,2.36.79,3.07s1.07,1.09,1.62,1.14l.76.14h2.14v.55h-2.14,0Zm-17.73-.27c2.44,0,4.63-.84,6.59-2.52s3-3.3,3.14-4.86v-8.35c-1.24-.09-2.5-.14-3.76-.14s-2.52.07-3.76.21c-3.49.41-5.77,1.2-6.83,2.35-1.06,1.15-1.59,2.74-1.59,4.76,0,.37.02.78.07,1.24.41,4.87,2.46,7.31,6.14,7.31h0Z"/><path class="cls-1" d="m344.33,32.62c0-5.98,1.45-10.6,4.35-13.86s7.24-4.9,13.04-4.9c4.28,0,8.62.76,13.04,2.28v33.31c-.05,10.94-4.83,16.42-14.35,16.42-5.24,0-9.73-1.7-13.45-5.1l.48-.41c3.95,3.31,8.28,4.97,12.97,4.97,6.35,0,9.52-5.29,9.52-15.86v-6.83c-.87,1.61-2.32,3.04-4.35,4.28-2.02,1.24-4.41,1.86-7.17,1.86-9.38-.23-14.07-5.61-14.07-16.14v-.02Zm14.13,15.59c3.08,0,5.72-.83,7.93-2.48,2.21-1.66,3.38-3.29,3.52-4.9v-24.35c-3.31-1.38-6.12-2.07-8.42-2.07-4.09,0-7.17,1.6-9.24,4.79-2.07,3.2-3.1,7.67-3.1,13.42,0,10.39,3.1,15.59,9.31,15.59h0Z"/><path class="cls-1" d="m386.68,31.8c0,5.7,1,9.89,3,12.55,2,2.67,4.63,4,7.9,4,4.6,0,8.69-.69,12.28-2.07l.21.48c-3.68,1.43-7.83,2.14-12.45,2.14s-8.38-1.38-11.28-4.14-4.35-7.01-4.35-12.76,1.52-10.21,4.55-13.38c3.03-3.17,6.9-4.76,11.59-4.76,3.77,0,6.94,1.13,9.52,3.38,2.58,2.25,3.86,5.59,3.86,10v.69h-24.62c-.14,1.24-.21,2.53-.21,3.86h0Zm17.59-14.2c-1.66-2.11-3.79-3.17-6.41-3.17s-4.96,1.15-7,3.45c-2.05,2.3-3.34,5.47-3.9,9.52h19.87c-.05-4.41-.9-7.68-2.55-9.79h-.01Z"/><path class="cls-1" d="m438.61,16.55c-.74-.6-1.92-1.1-3.55-1.52-1.63-.41-2.86-.62-3.69-.62h-1.45c-2.48.05-4.28.68-5.38,1.9-1.1,1.22-1.66,2.59-1.66,4.1s.48,2.79,1.45,3.83c.96,1.03,2.17,1.84,3.62,2.41,1.45.58,3.01,1.23,4.69,1.97s3.24,1.48,4.69,2.24,2.66,1.86,3.62,3.31c.97,1.45,1.45,3.25,1.45,5.41s-.76,4-2.28,5.52-3.21,2.53-5.07,3.04c-1.86.5-3.88.76-6.04.76-4.69,0-8.21-1.04-10.55-3.1l.41-.41c.92.87,2.29,1.59,4.1,2.14s3.58.83,5.28.83c2.71,0,4.95-.75,6.72-2.24s2.66-3.36,2.66-5.59-.67-4.02-2-5.38-2.96-2.41-4.86-3.17c-1.91-.76-3.83-1.52-5.76-2.28-1.93-.76-3.56-1.82-4.9-3.17-1.33-1.36-2-2.93-2-4.73s.41-3.25,1.24-4.38,1.93-1.92,3.31-2.38c2.34-.78,4.69-1.17,7.04-1.17,3.95,0,7.04.74,9.24,2.21l-.34.48h0Z"/></g></svg>