<?xml version="1.0" encoding="UTF-8"?><svg id="Layer_1" xmlns="http://www.w3.org/2000/svg" viewBox="0 0 145.97 165.02"><defs><style>.cls-1{fill:#14b8ef;}.cls-2{fill:#fbb92d;}.cls-3{fill:#05457a;}</style></defs><g><path class="cls-2" d="m107.91,95.75c-.05,2.44-.13,4.99-.27,7.66-.26,5.25-.72,10.97-1.48,17.18-.85,7-1.87,12.86-2.7,17.15-3.67-2.29-8.81-5.17-15.26-7.83-8.43-3.47-15.02-4.88-22.44-6.47-7.37-1.57-11.74-2.48-16.09-2.48-.86,0-1.72.03-2.6.1-6.52.54-11.69,2.55-15,4.14,7.66-9.85,14.15-19.06,19.59-27.31.6-.91,1.18-1.81,1.76-2.69,2.63-4.07,4.99-7.87,7.11-11.38,8.93-14.79,14.07-25.4,15.33-28.04,2.84-5.92,6.97-14.58,11.11-26.31.4-1.11.79-2.25,1.18-3.42.26-.77.51-1.54.76-2.3.21-.64.41-1.28.61-1.91,2.67-8.49,4.48-15.94,5.73-21.84,2.06,6.53,4.54,15.33,6.73,25.89.17.78.33,1.57.48,2.37.01.01.01.02.01.03.02.07.03.15.05.23.48,2.44.91,4.81,1.31,7.12,2.98,17.59,3.5,31.49,3.84,41.45.17,5.29.37,11.48.24,18.66Z"/><path class="cls-3" d="m53.42,95.2c-.58.88-1.16,1.78-1.76,2.69-.4,0-.81,0-1.22.02-.4.01-.81.02-1.22.04-7.15.19-14.93.72-23.24,1.74,6.34-1.41,13.83-2.82,22.32-3.9.86-.11,1.71-.21,2.54-.31.43-.05.87-.1,1.29-.15.44-.04.87-.09,1.29-.13Z"/></g><path class="cls-1" d="m102.16,142.47c-1.77,1.46-2.45,2.2-4.66,3.57-1.69,1.05-4.58,2.57-7.01,3.08-.86.18-2.13.37-3.23.34-2.09-.05-4.56-.53-6.68-.97-3.65-.75-8.34-2.48-11.4-3.7-4.3-1.72-5.45-2.61-9.98-4.21-2.19-.77-5.77-1.91-9.31-2.58-1.8-.34-7.03-1.11-9.69-1.02-.41.01-1.36,0-2.14.04-3.23.18-6.68.57-9.9,1.67-.1.04-.22.07-.39.14-2.88,1.2-5.46,2.98-7.68,5.23-.02.02-.05.05-.08.09-.76.94-1.55,1.96-2.32,2.82.49-.66,1.73-2.61,1.98-3.05.25-.44.14-.22.16-.24,1.4-1.93,4.81-5.78,5.95-7.06,1.64-1.83,3.28-3.21,4.4-3.91,5.41-3.37,9.28-4.23,15.47-5.22,1.16-.18,4.06-.35,5.85-.38.69-.01,2.77.07,3.76.11,4.77.19,12.11,2.16,15.96,3.4,4.64,1.51,10.08,3.92,12.87,5.21,4.41,2.03,6.03,2.97,9.42,4.22,3.39,1.24,5.35,1.67,8.67,2.41Z"/><path class="cls-3" d="m135.49,59.01c.72,1.32,1.4,2.67,2.03,4.04-.64-1.37-1.31-2.72-2.03-4.04Z"/><path class="cls-3" d="m86.55,20.29h0c-.11.35-.36,1.13-.62,1.91-.28.86-.57,1.73-.69,2.09-.42,1.25-.84,2.47-1.26,3.66-3.73-.68-7.57-1.03-11.49-1.03-35.56,0-64.49,28.93-64.49,64.49,0,16.15,5.96,30.92,15.81,42.23-.04.05-.09.09-.13.14-.96,1.03-2.45,3.07-3.6,4.76-.43.64-.82,1.23-1.11,1.7-.02-.02-.04-.05-.06-.07C7.17,127.29,0,110.17,0,91.41,0,51.44,32.52,18.92,72.49,18.92c4.79,0,9.47.47,14.01,1.37h.05Z"/><path class="cls-3" d="m145.97,92.54c0,39.96-32.52,72.48-72.47,72.48-19.57,0-37.35-7.79-50.39-20.45.43-.29,1.04-.65,1.72-1.04,1.56-.89,3.5-1.89,4.56-2.32l.1-.04s.09-.04.14-.05l.05-.02.08-.03c.3-.12.6-.22.9-.32,11.48,10.52,26.07,16.27,42.84,16.27,29.17,0,53.89-19.49,61.82-46.13-6.79-2.24-15.57-4.8-25.71-7.05-.03,0-.07,0-.1-.02-.3-.07-.59-.13-.88-.19-.34-.08-.67-.15-1-.22.14-2.67.22-5.22.27-7.66.35.05.67.09,1,.13.35.05.67.09.99.14,2.32.31,4.31.62,5.94.89,5.62.93,12.98,2.36,21.51,4.64.42-2.94.63-5.95.63-9.01,0-23.68-12.83-44.43-31.9-55.63-.31-1.81-.85-4.99-1.31-7.56-.18-.9-.32-1.74-.45-2.41.01.01.04.02.07.03,24.57,11.61,41.59,36.64,41.59,65.57Z"/></svg>