<?xml version="1.0" encoding="utf-8"?>
<!-- Generator: Adobe Illustrator 27.4.0, SVG Export Plug-In . SVG Version: 6.00 Build 0)  -->
<svg version="1.1" id="OC_H_White" xmlns="http://www.w3.org/2000/svg" xmlns:xlink="http://www.w3.org/1999/xlink" x="0px" y="0px"
	 viewBox="0 0 254 91" style="enable-background:new 0 0 254 91;" xml:space="preserve">
<style type="text/css">
	.st0{fill:#FFFFFF;}
</style>
<g>
	<g>
		<g>
			<path class="st0" d="M39.3,0.6c-8.5,0-15.3,4.6-18.1,11.3c1.6,0.1,3.2,0.4,4.6,0.9c1.7-7.9,7.8-10.6,12.6-10.6
				c10.5,0,14.5,9.3,14.5,17.9c0,10.3-6.2,15-12.8,15c-8.6,0-12.8-6.4-14.2-12.9c-0.1,0-0.2,0-0.3,0.1c-1.7,0.5-3.5,0.8-5.2,0.8
				c1.8,7.6,8.7,13.6,19,13.6c10.6,0,19-7.7,19-18.2C58.3,9.3,52,0.6,39.3,0.6z"/>
			<path class="st0" d="M93.4,27.4c-1.2,3-4.2,7.3-10.9,7.3c-8.6,0-15.5-5.9-15.5-16.7c0-10.6,6.8-15.6,14.8-15.6
				c7.6,0,9.9,4,10.7,7.5c0.4,0.3,1.1,0.3,1.4-0.1c-0.4-3.1-0.7-6.4-0.7-7.5c-0.5,0.1-0.8-0.1-1.5-0.2c-2.5-0.7-6.4-1.2-9.2-1.2
				c-5.4,0-10.3,1.4-14.1,4.4c-4,3-6.6,7.9-6.6,13.6c0,6.6,3.2,11.3,7.4,14.1c3.8,2.5,8.3,3.4,13,3.4c3.3,0,7.1-0.8,8.2-1.2
				c0.6-0.2,1.2-0.4,1.8-0.5c0.8-1,2.1-4.4,2.5-7C94.5,27.2,93.7,27.1,93.4,27.4z"/>
			<path class="st0" d="M124.6,28.1c-1.4,2.7-2.8,4.5-3.7,5c-1.1,0.6-2.7,0.8-6.7,0.8c-4.6,0-5.7-0.6-6.3-1.2c-0.8-0.9-1-2.6-1-5.3
				v-7.2c0-1.3,0.2-1.4,1.7-1.4h3c2,0,3.3,0.1,4,0.3c1,0.3,1.4,1,1.6,1.9l0.5,2c0.3,0.3,1.1,0.3,1.4-0.1c0-1.1-0.2-3.1-0.2-4.9
				c0-1.9,0.2-3.9,0.2-5.2c-0.2-0.4-1.1-0.4-1.4-0.1l-0.4,2.1c-0.3,1.3-0.6,1.6-1.3,1.8c-0.6,0.2-2.2,0.3-4.4,0.3h-3
				c-1.6,0-1.7,0-1.7-1.4V5.3c0-1.9,0-2,1.6-2h3.8c2.3,0,4,0.1,5.1,0.3c2.7,0.7,3.2,2.5,4,4.9c0.3,0.3,1.1,0.2,1.3-0.1
				c-0.2-2.3-0.5-5.9-0.8-6.8c-0.6,0.2-3.7,0.2-7,0.2h-9.8c-1,0-2,0-3-0.1c-1,0-2-0.1-3.1-0.1c-0.3,0.2-0.4,1.1-0.1,1.3l0.8,0.1
				c3.1,0.4,3.2,1.1,3.2,6.5v18.4c0,5.4-0.3,6.1-3.2,6.4l-1.7,0.2c-0.3,0.3-0.2,1.1,0.1,1.3c3.1-0.1,4.9-0.2,7.1-0.2h4.7
				c2.3,0,4.6,0,7,0.1c2.3,0,4.6,0.1,7,0.1c0.7-1.4,2-5.3,2.3-7.1C125.7,28,125,27.9,124.6,28.1z"/>
			<path class="st0" d="M194.1,1.6c-2,0-3.8-0.1-6.2-0.2c-0.4,0.2-0.5,1-0.1,1.3l0.9,0.1c2.1,0.3,2.9,0.6,3.2,1c1,1.5,1,8.2,1,10.6
				v11c0,1.1,0,1.9-0.2,2.2h-0.1c-2.5-2.5-5.1-5.3-8.6-9.3l-5.1-5.6c-1.7-1.9-7.9-8.7-8.9-11.3c-0.7,0.1-1.6,0.2-2.4,0.2
				c-0.9,0-3.7,0-5.9-0.2c-0.4,0.2-0.4,1-0.1,1.3l0.9,0.1c1.3,0.2,2.5,0.5,3.2,1.2c1.1,1.2,1.1,2.3,1.1,3.7v14.8
				c0,2.5,0.1,8.7-0.7,10.5c-0.3,0.6-1.1,0.9-2.3,1l-1.4,0.2c-0.3,0.3-0.3,1,0.1,1.3c1.8-0.1,3.2-0.2,5.4-0.2c1.9,0,3.8,0.1,6.1,0.2
				c0.4-0.3,0.4-0.9,0.1-1.3l-1.6-0.2c-1.3-0.1-2.3-0.4-2.7-1c-0.8-1.5-0.9-8.2-0.9-10.6V11.4c0-1.5,0.1-2.7,0.3-3.3h0.1
				c1.1,1.1,4.6,5.3,6.1,6.9l12.1,13.5c4.5,5.1,6.1,6.9,6.7,7.7c0.6,0,0.9-0.3,1-0.6c-0.2-1.3-0.2-7.4-0.2-9V14.5
				c0-2.4-0.1-8.7,0.8-10.5c0.2-0.4,1.3-0.8,2.9-1.1l0.7-0.1c0.3-0.3,0.3-1-0.1-1.3C197.7,1.6,196.3,1.6,194.1,1.6z"/>
			<path class="st0" d="M215.2,2.9l1.3-0.1c0.3-0.2,0.2-1.1-0.1-1.3c-2.6,0.1-4.4,0.2-6.5,0.2c-2.2,0-4-0.1-6.6-0.2
				c-0.3,0.2-0.4,1.1-0.1,1.3l1.3,0.1c3.1,0.3,3.2,1.1,3.2,6.6v18.2c0,5.4-0.1,6.1-3.2,6.5l-1.3,0.2c-0.3,0.3-0.2,1.1,0.1,1.3
				c2.6-0.1,4.4-0.2,6.6-0.2c2.1,0,3.9,0.1,6.5,0.2c0.3-0.2,0.4-1.1,0.1-1.3l-1.3-0.2c-3.1-0.4-3.2-1.1-3.2-6.5V9.4
				C212,4,212.1,3.1,215.2,2.9z"/>
			<g>
				<path class="st0" d="M159.2,34.2c-2.2-0.3-2.9-1-4.4-5.4l-7.2-20.6c-0.8-2.3-1.6-4.6-2.3-6.9c-0.1-0.4-0.5-0.5-0.8-0.5
					c-0.6,0.7-1.5,1.6-2.7,1.9c0.2,0.8-0.2,1.8-0.9,3.6l-5.3,13.8c-2.2,5.7-3.7,9.1-4.6,11.4c-0.7,1.8-1.9,2.4-3.1,2.5l-1.7,0.2
					c-0.3,0.3-0.2,1.1,0.1,1.3c1.4-0.1,3.3-0.2,5-0.2c2.5,0.1,4.1,0.1,5.4,0.2c0.5-0.2,0.5-1,0.1-1.3l-1.7-0.2
					c-1.3-0.1-1.5-0.4-1.5-1c0-0.6,0.4-1.9,1.1-4.3l1.8-5.4c0.4-1.1,0.7-1.2,2-1.2h7.9c1.6,0,1.8,0.2,2.1,1.3l2.3,7
					c0.4,1.2,0.7,2.2,0.7,2.7c0,0.5-0.7,0.8-1.8,0.9l-1.5,0.2c-0.4,0.3-0.3,1.1,0.1,1.3c1.5-0.1,3.5-0.2,6-0.2
					c2.3,0,4.2,0.1,6.3,0.2c0.3-0.2,0.4-1,0-1.3L159.2,34.2z M145.7,20.2h-6.4c-1.5,0-1.5-0.1-1.1-1.2l3.3-8.9
					c0.6-1.5,1.1-2.8,1.3-3h0.1c0.3,0.6,0.8,2,1.2,3.2l2.8,8.3C147.3,20,147.2,20.2,145.7,20.2z"/>
				<path class="st0" d="M253.2,34.3l-1.4-0.2c-2.2-0.3-2.9-1-4.4-5.4l-7.2-20.6c-0.8-2.3-1.6-4.6-2.3-6.9c-0.1-0.4-0.5-0.5-0.8-0.5
					c-0.6,0.7-1.5,1.6-2.7,1.9c0.2,0.8-0.2,1.8-0.9,3.6l-5.3,13.8c-2.2,5.7-3.7,9.1-4.6,11.4c-0.7,1.8-1.9,2.4-3.1,2.5l-1.7,0.2
					c-0.3,0.3-0.2,1.1,0.1,1.3c1.4-0.1,3.3-0.2,5-0.2c2.5,0.1,4.1,0.1,5.4,0.2c0.5-0.2,0.5-1,0.1-1.3l-1.7-0.2
					c-1.3-0.1-1.5-0.4-1.5-1c0-0.6,0.4-1.9,1.1-4.3l1.8-5.4c0.4-1.1,0.7-1.2,2-1.2h7.9c1.6,0,1.8,0.2,2.1,1.3l2.3,7
					c0.4,1.2,0.7,2.2,0.7,2.7c0,0.5-0.7,0.8-1.8,0.9l-1.5,0.2c-0.4,0.3-0.3,1.1,0.1,1.3c1.5-0.1,3.5-0.2,6-0.2
					c2.3,0,4.2,0.1,6.3,0.2C253.5,35.4,253.6,34.6,253.2,34.3z M238.4,20.2h-6.4c-1.5,0-1.5-0.1-1.1-1.2l3.3-8.9
					c0.6-1.5,1.1-2.8,1.3-3h0.1c0.3,0.6,0.8,2,1.2,3.2l2.8,8.3C240,20,239.9,20.2,238.4,20.2z"/>
			</g>
			<path class="st0" d="M25.7,15.7c-0.1,0-0.2,0-0.4,0"/>
			<g>
				<path class="st0" d="M18.3,16.4c0.6-0.1,1.2-0.2,1.7-0.3c1.9-0.3,3.7-0.5,5.3-0.4c0.1,0,0.2,0,0.4,0c1.4,0.1,2.6,0.3,3.6,0.6
					l0,0c-0.8-0.8-1.8-1.4-2.9-1.9c-0.3-0.1-0.6-0.3-1-0.4c-1.5-0.5-3.1-0.7-4.8-0.8c-2.2,0-4.5,0.3-6.7,0.9
					c-4.1,1.2-7.8,1.5-10.7,1.2c-1-0.1-1.9-0.3-2.8-0.6l-0.1,0.1c3.3,3.2,9.7,3.8,15.3,2.2C16.7,16.8,17.5,16.6,18.3,16.4z"/>
				<path class="st0" d="M25.7,17.7c-0.1,0-0.3,0.1-0.4,0.1c-0.5,0.1-1.1,0.2-1.6,0.4c-1.3,0.4-2.6,0.7-3.9,0.9
					c-0.5,0.1-1,0.2-1.5,0.2c-3.2,0.4-6,0.2-8.1-0.5l-0.1,0.1c0.7,0.7,1.5,1.2,2.5,1.7c2.1,1,4.7,1.4,7.4,1.4
					c1.8-0.1,3.7-0.3,5.5-0.9c0,0,0.1,0,0.1,0c4.3-1.2,8-1.6,10.9-1.2c0.9,0.1,1.8,0.3,2.5,0.5l0,0C36.1,17.4,30.8,16.7,25.7,17.7z"
					/>
			</g>
		</g>
		<g>
			<path class="st0" d="M82.8,50.1c-0.4-0.6-1-1-1.6-1.2c-0.7-0.3-1.3-0.4-2-0.4c-0.8,0-1.6,0.1-2.2,0.4c-0.7,0.3-1.2,0.7-1.7,1.2
				c-0.5,0.5-0.9,1.1-1.1,1.8s-0.4,1.5-0.4,2.3c0,0.9,0.1,1.7,0.4,2.4c0.3,0.7,0.6,1.3,1.1,1.8c0.5,0.5,1,0.9,1.7,1.2
				c0.7,0.3,1.4,0.4,2.2,0.4c0.8,0,1.6-0.2,2.3-0.5c0.7-0.3,1.2-0.8,1.6-1.3l2.3,1.6c-0.7,0.9-1.6,1.6-2.6,2c-1,0.5-2.2,0.7-3.6,0.7
				c-1.2,0-2.4-0.2-3.4-0.6c-1-0.4-1.9-1-2.7-1.7c-0.7-0.7-1.3-1.6-1.7-2.6c-0.4-1-0.6-2.2-0.6-3.4c0-1.3,0.2-2.4,0.7-3.4
				c0.4-1,1-1.9,1.8-2.6c0.8-0.7,1.7-1.3,2.7-1.7s2.2-0.6,3.4-0.6c0.5,0,1,0,1.6,0.1c0.6,0.1,1.1,0.2,1.6,0.4c0.5,0.2,1,0.5,1.4,0.7
				c0.4,0.3,0.8,0.7,1.1,1.1L82.8,50.1z"/>
			<path class="st0" d="M93.6,46.4h5.5c0.7,0,1.5,0.1,2.2,0.2c0.7,0.2,1.3,0.4,1.9,0.8c0.5,0.4,1,0.8,1.3,1.4
				c0.3,0.6,0.5,1.3,0.5,2.1c0,1.1-0.3,2.1-1,2.8c-0.6,0.7-1.5,1.2-2.7,1.5l4.2,7h-3.4l-3.7-6.7h-2.1v6.7h-2.8V46.4z M98.7,53.2
				c0.4,0,0.8,0,1.2-0.1c0.4-0.1,0.8-0.2,1.1-0.3c0.3-0.2,0.6-0.4,0.8-0.7c0.2-0.3,0.3-0.7,0.3-1.2c0-0.4-0.1-0.8-0.3-1.1
				c-0.2-0.3-0.4-0.5-0.7-0.7c-0.3-0.2-0.6-0.3-1-0.3c-0.4-0.1-0.7-0.1-1.1-0.1h-2.5v4.5H98.7z"/>
			<path class="st0" d="M127,56.4c0,1-0.2,1.8-0.5,2.6c-0.3,0.8-0.8,1.4-1.3,2c-0.6,0.5-1.2,1-2,1.2c-0.8,0.3-1.6,0.4-2.5,0.4
				c-0.9,0-1.8-0.1-2.5-0.4c-0.8-0.3-1.5-0.7-2-1.2c-0.6-0.5-1-1.2-1.3-2c-0.3-0.8-0.5-1.6-0.5-2.6v-10h2.8v9.9
				c0,0.5,0.1,0.9,0.2,1.4c0.1,0.5,0.3,0.9,0.6,1.2s0.6,0.6,1.1,0.9c0.5,0.2,1,0.3,1.7,0.3c0.7,0,1.2-0.1,1.7-0.3
				c0.5-0.2,0.8-0.5,1.1-0.9c0.3-0.4,0.5-0.8,0.6-1.2c0.1-0.5,0.2-0.9,0.2-1.4v-9.9h2.8V56.4z"/>
			<path class="st0" d="M137.1,46.4h2.8v15.8h-2.8V46.4z"/>
			<path class="st0" d="M158.2,49.7c-0.3-0.4-0.7-0.7-1.3-1c-0.5-0.3-1.1-0.4-1.6-0.4c-0.3,0-0.7,0-1,0.1c-0.3,0.1-0.6,0.2-0.9,0.4
				c-0.3,0.2-0.5,0.4-0.7,0.7c-0.2,0.3-0.3,0.6-0.3,1c0,0.4,0.1,0.7,0.2,0.9c0.1,0.3,0.4,0.5,0.6,0.6c0.3,0.2,0.6,0.3,1,0.5
				c0.4,0.1,0.8,0.3,1.2,0.4c0.5,0.2,1,0.4,1.6,0.6c0.5,0.2,1,0.5,1.5,0.8c0.5,0.3,0.8,0.8,1.1,1.3c0.3,0.5,0.4,1.2,0.4,1.9
				c0,0.9-0.2,1.6-0.5,2.2c-0.3,0.6-0.7,1.2-1.3,1.6c-0.5,0.4-1.1,0.7-1.8,0.9c-0.7,0.2-1.4,0.3-2.2,0.3c-1,0-2-0.2-3-0.6
				c-1-0.4-1.8-0.9-2.4-1.7l2-1.9c0.4,0.5,0.9,1,1.6,1.3c0.6,0.3,1.3,0.5,1.9,0.5c0.3,0,0.7,0,1-0.1c0.3-0.1,0.7-0.2,0.9-0.4
				c0.3-0.2,0.5-0.4,0.7-0.7c0.2-0.3,0.3-0.7,0.3-1.1c0-0.4-0.1-0.8-0.3-1c-0.2-0.3-0.5-0.5-0.8-0.7c-0.3-0.2-0.7-0.4-1.2-0.5
				c-0.4-0.1-0.9-0.3-1.4-0.5c-0.5-0.1-1-0.3-1.4-0.5c-0.5-0.2-0.9-0.5-1.3-0.8c-0.4-0.3-0.7-0.8-0.9-1.3c-0.2-0.5-0.4-1.1-0.4-1.9
				c0-0.8,0.2-1.5,0.5-2.1c0.3-0.6,0.8-1.1,1.3-1.4c0.5-0.4,1.2-0.7,1.9-0.9c0.7-0.2,1.4-0.3,2.1-0.3c0.8,0,1.6,0.1,2.4,0.4
				c0.8,0.3,1.5,0.7,2.2,1.3L158.2,49.7z"/>
			<path class="st0" d="M169.6,46.4h10.5v2.5h-7.7v4h7.3v2.4h-7.3v4.5h8.1v2.5h-10.9V46.4z"/>
			<path class="st0" d="M198.1,49.7c-0.3-0.4-0.7-0.7-1.3-1c-0.5-0.3-1.1-0.4-1.6-0.4c-0.3,0-0.7,0-1,0.1c-0.3,0.1-0.6,0.2-0.9,0.4
				c-0.3,0.2-0.5,0.4-0.7,0.7c-0.2,0.3-0.3,0.6-0.3,1c0,0.4,0.1,0.7,0.2,0.9c0.1,0.3,0.4,0.5,0.6,0.6c0.3,0.2,0.6,0.3,1,0.5
				c0.4,0.1,0.8,0.3,1.2,0.4c0.5,0.2,1,0.4,1.6,0.6c0.5,0.2,1,0.5,1.5,0.8c0.5,0.3,0.8,0.8,1.1,1.3c0.3,0.5,0.4,1.2,0.4,1.9
				c0,0.9-0.2,1.6-0.5,2.2c-0.3,0.6-0.7,1.2-1.3,1.6c-0.5,0.4-1.1,0.7-1.8,0.9c-0.7,0.2-1.4,0.3-2.2,0.3c-1,0-2-0.2-3-0.6
				c-1-0.4-1.8-0.9-2.4-1.7l2-1.9c0.4,0.5,0.9,1,1.6,1.3c0.6,0.3,1.3,0.5,1.9,0.5c0.3,0,0.7,0,1-0.1c0.3-0.1,0.7-0.2,0.9-0.4
				c0.3-0.2,0.5-0.4,0.7-0.7c0.2-0.3,0.3-0.7,0.3-1.1c0-0.4-0.1-0.8-0.3-1c-0.2-0.3-0.5-0.5-0.8-0.7c-0.3-0.2-0.7-0.4-1.2-0.5
				c-0.4-0.1-0.9-0.3-1.4-0.5c-0.5-0.1-1-0.3-1.4-0.5c-0.5-0.2-0.9-0.5-1.3-0.8c-0.4-0.3-0.7-0.8-0.9-1.3c-0.2-0.5-0.4-1.1-0.4-1.9
				c0-0.8,0.2-1.5,0.5-2.1c0.3-0.6,0.8-1.1,1.3-1.4c0.5-0.4,1.2-0.7,1.9-0.9c0.7-0.2,1.4-0.3,2.1-0.3c0.8,0,1.6,0.1,2.4,0.4
				c0.8,0.3,1.5,0.7,2.2,1.3L198.1,49.7z"/>
		</g>
		<path class="st0" d="M118.8,16.6"/>
		<g>
			<path class="st0" d="M206.5,46.1c0.5,0,1.1,0.1,1.6,0.4c0.5,0.3,0.9,0.7,1.2,1.2c0.3,0.5,0.4,1.1,0.4,1.6c0,0.6-0.1,1.1-0.4,1.6
				c-0.3,0.5-0.7,0.9-1.2,1.2c-0.5,0.3-1,0.4-1.6,0.4s-1.1-0.1-1.6-0.4c-0.5-0.3-0.9-0.7-1.2-1.2c-0.3-0.5-0.4-1-0.4-1.6
				c0-0.6,0.1-1.1,0.4-1.6c0.3-0.5,0.7-0.9,1.2-1.2C205.4,46.2,205.9,46.1,206.5,46.1z M206.5,46.6c-0.5,0-0.9,0.1-1.3,0.3
				c-0.4,0.2-0.8,0.6-1,1c-0.2,0.4-0.4,0.9-0.4,1.3c0,0.5,0.1,0.9,0.4,1.3c0.2,0.4,0.6,0.8,1,1c0.4,0.2,0.9,0.4,1.3,0.4
				s0.9-0.1,1.3-0.4c0.4-0.2,0.8-0.6,1-1c0.2-0.4,0.4-0.9,0.4-1.3c0-0.5-0.1-0.9-0.4-1.3c-0.2-0.4-0.6-0.8-1-1
				C207.4,46.8,206.9,46.6,206.5,46.6z M205,51.1v-3.5h1.2c0.4,0,0.7,0,0.9,0.1c0.2,0.1,0.3,0.2,0.4,0.3c0.1,0.2,0.2,0.3,0.2,0.5
				c0,0.3-0.1,0.5-0.3,0.7c-0.2,0.2-0.4,0.3-0.7,0.3c0.1,0.1,0.2,0.1,0.3,0.2c0.1,0.1,0.3,0.4,0.5,0.7l0.4,0.7h-0.7l-0.3-0.5
				c-0.2-0.4-0.4-0.7-0.6-0.8c-0.1-0.1-0.3-0.1-0.4-0.1h-0.3v1.5H205z M205.6,49.2h0.7c0.3,0,0.5,0,0.7-0.1c0.1-0.1,0.2-0.2,0.2-0.4
				c0-0.1,0-0.2-0.1-0.3c-0.1-0.1-0.1-0.1-0.2-0.2c-0.1,0-0.3-0.1-0.6-0.1h-0.6V49.2z"/>
		</g>
	</g>
	<g>
		<g>
			<path class="st0" d="M24.7,85.9l-3.7-5.5h2.1l2.5,4.1l2.5-4.1h2l-3.7,5.5v4.2h-1.7V85.9z"/>
			<path class="st0" d="M32.6,85.3c0-0.8,0.1-1.5,0.4-2.1c0.3-0.6,0.6-1.2,1.1-1.6c0.5-0.4,1-0.8,1.7-1c0.6-0.2,1.3-0.4,2.1-0.4
				c0.8,0,1.5,0.1,2.1,0.4c0.6,0.2,1.2,0.6,1.7,1c0.5,0.4,0.8,1,1.1,1.6c0.3,0.6,0.4,1.3,0.4,2.1c0,0.8-0.1,1.5-0.4,2.1
				c-0.3,0.6-0.6,1.2-1.1,1.6c-0.5,0.5-1,0.8-1.7,1.1s-1.3,0.4-2.1,0.4c-0.8,0-1.5-0.1-2.1-0.4c-0.6-0.3-1.2-0.6-1.7-1.1
				c-0.5-0.5-0.8-1-1.1-1.6C32.7,86.7,32.6,86,32.6,85.3z M34.5,85.3c0,0.5,0.1,1,0.2,1.4c0.2,0.4,0.4,0.8,0.7,1.1
				c0.3,0.3,0.7,0.6,1.1,0.8c0.4,0.2,0.9,0.3,1.4,0.3c0.5,0,1-0.1,1.4-0.3c0.4-0.2,0.8-0.4,1.1-0.8c0.3-0.3,0.5-0.7,0.7-1.1
				s0.2-0.9,0.2-1.4c0-0.5-0.1-1-0.2-1.4s-0.4-0.8-0.7-1.1c-0.3-0.3-0.6-0.6-1.1-0.8c-0.4-0.2-0.9-0.3-1.4-0.3c-0.5,0-1,0.1-1.4,0.3
				c-0.4,0.2-0.8,0.4-1.1,0.8c-0.3,0.3-0.5,0.7-0.7,1.1C34.6,84.3,34.5,84.7,34.5,85.3z"/>
			<path class="st0" d="M55.1,86.6c0,0.6-0.1,1.1-0.3,1.6s-0.5,0.9-0.8,1.2c-0.4,0.3-0.8,0.6-1.2,0.8c-0.5,0.2-1,0.3-1.6,0.3
				s-1.1-0.1-1.6-0.3c-0.5-0.2-0.9-0.4-1.3-0.8c-0.4-0.3-0.6-0.7-0.8-1.2c-0.2-0.5-0.3-1-0.3-1.6v-6.2h1.7v6.1c0,0.3,0,0.6,0.1,0.9
				c0.1,0.3,0.2,0.5,0.4,0.8c0.2,0.2,0.4,0.4,0.7,0.5c0.3,0.1,0.6,0.2,1,0.2s0.8-0.1,1-0.2c0.3-0.1,0.5-0.3,0.7-0.5
				c0.2-0.2,0.3-0.5,0.4-0.8c0.1-0.3,0.1-0.6,0.1-0.9v-6.1h1.7V86.6z"/>
			<path class="st0" d="M59.6,80.4H63c0.5,0,0.9,0,1.3,0.1c0.4,0.1,0.8,0.3,1.2,0.5c0.3,0.2,0.6,0.5,0.8,0.9
				c0.2,0.4,0.3,0.8,0.3,1.3c0,0.7-0.2,1.3-0.6,1.7c-0.4,0.4-0.9,0.7-1.6,0.9l2.6,4.3h-2.1L62.7,86h-1.3v4.1h-1.7V80.4z M62.8,84.6
				c0.3,0,0.5,0,0.7-0.1c0.2,0,0.5-0.1,0.7-0.2c0.2-0.1,0.4-0.2,0.5-0.4c0.1-0.2,0.2-0.4,0.2-0.7c0-0.3-0.1-0.5-0.2-0.7
				c-0.1-0.2-0.3-0.3-0.5-0.4c-0.2-0.1-0.4-0.2-0.6-0.2c-0.2,0-0.5-0.1-0.7-0.1h-1.6v2.8H62.8z"/>
			<path class="st0" d="M75.6,80.4h1.9l1.9,7.2h0l2.2-7.2h1.8l2.1,7.2h0l1.9-7.2h1.9l-2.9,9.8h-1.7l-2.3-7.3h0l-2.3,7.3h-1.7
				L75.6,80.4z"/>
			<path class="st0" d="M92.3,85.3c0-0.8,0.1-1.5,0.4-2.1c0.3-0.6,0.6-1.2,1.1-1.6c0.5-0.4,1-0.8,1.7-1c0.6-0.2,1.3-0.4,2.1-0.4
				c0.8,0,1.5,0.1,2.1,0.4c0.6,0.2,1.2,0.6,1.7,1c0.5,0.4,0.8,1,1.1,1.6c0.3,0.6,0.4,1.3,0.4,2.1c0,0.8-0.1,1.5-0.4,2.1
				c-0.3,0.6-0.6,1.2-1.1,1.6c-0.5,0.5-1,0.8-1.7,1.1c-0.6,0.3-1.3,0.4-2.1,0.4c-0.8,0-1.5-0.1-2.1-0.4c-0.6-0.3-1.2-0.6-1.7-1.1
				c-0.5-0.5-0.8-1-1.1-1.6C92.5,86.7,92.3,86,92.3,85.3z M94.2,85.3c0,0.5,0.1,1,0.2,1.4c0.2,0.4,0.4,0.8,0.7,1.1
				c0.3,0.3,0.7,0.6,1.1,0.8c0.4,0.2,0.9,0.3,1.4,0.3c0.5,0,1-0.1,1.4-0.3c0.4-0.2,0.8-0.4,1.1-0.8c0.3-0.3,0.5-0.7,0.7-1.1
				c0.2-0.4,0.2-0.9,0.2-1.4c0-0.5-0.1-1-0.2-1.4c-0.2-0.4-0.4-0.8-0.7-1.1c-0.3-0.3-0.6-0.6-1.1-0.8c-0.4-0.2-0.9-0.3-1.4-0.3
				c-0.5,0-1,0.1-1.4,0.3c-0.4,0.2-0.8,0.4-1.1,0.8c-0.3,0.3-0.5,0.7-0.7,1.1C94.3,84.3,94.2,84.7,94.2,85.3z"/>
			<path class="st0" d="M107,80.4h3.4c0.5,0,0.9,0,1.3,0.1c0.4,0.1,0.8,0.3,1.2,0.5c0.3,0.2,0.6,0.5,0.8,0.9
				c0.2,0.4,0.3,0.8,0.3,1.3c0,0.7-0.2,1.3-0.6,1.7c-0.4,0.4-0.9,0.7-1.6,0.9l2.6,4.3h-2.1L110,86h-1.3v4.1H107V80.4z M110.2,84.6
				c0.2,0,0.5,0,0.7-0.1c0.3,0,0.5-0.1,0.7-0.2c0.2-0.1,0.4-0.2,0.5-0.4c0.1-0.2,0.2-0.4,0.2-0.7c0-0.3-0.1-0.5-0.2-0.7
				c-0.1-0.2-0.3-0.3-0.5-0.4c-0.2-0.1-0.4-0.2-0.6-0.2c-0.2,0-0.5-0.1-0.7-0.1h-1.6v2.8H110.2z"/>
			<path class="st0" d="M118.2,80.4h1.7v8.2h4.2v1.5h-5.9V80.4z"/>
			<path class="st0" d="M127.8,80.4h3.5c0.6,0,1.3,0.1,1.9,0.3c0.6,0.2,1.2,0.4,1.7,0.8c0.5,0.4,0.9,0.9,1.3,1.5
				c0.3,0.6,0.5,1.4,0.5,2.3c0,0.9-0.2,1.6-0.5,2.2c-0.3,0.6-0.7,1.1-1.3,1.5c-0.5,0.4-1.1,0.7-1.7,0.9c-0.6,0.2-1.3,0.3-1.9,0.3
				h-3.5V80.4z M131,88.7c0.4,0,0.9-0.1,1.4-0.2c0.5-0.1,0.9-0.3,1.2-0.5c0.4-0.3,0.7-0.6,0.9-1c0.2-0.4,0.3-1,0.3-1.6
				c0-0.7-0.1-1.3-0.3-1.7c-0.2-0.4-0.5-0.8-0.9-1c-0.4-0.3-0.8-0.4-1.2-0.5c-0.4-0.1-0.9-0.1-1.4-0.1h-1.5v6.8H131z"/>
			<path class="st0" d="M139.8,89.2c0-0.3,0.1-0.5,0.3-0.8c0.2-0.2,0.5-0.3,0.8-0.3c0.3,0,0.6,0.1,0.8,0.3c0.2,0.2,0.3,0.4,0.3,0.7
				s-0.1,0.5-0.3,0.8c-0.2,0.2-0.5,0.3-0.8,0.3c-0.1,0-0.3,0-0.4-0.1c-0.1-0.1-0.3-0.1-0.4-0.2c-0.1-0.1-0.2-0.2-0.2-0.3
				C139.8,89.5,139.8,89.4,139.8,89.2z"/>
			<path class="st0" d="M153.8,85.9l-3.7-5.5h2.1l2.5,4.1l2.5-4.1h2l-3.7,5.5v4.2h-1.7V85.9z"/>
			<path class="st0" d="M161.7,85.3c0-0.8,0.1-1.5,0.4-2.1c0.3-0.6,0.6-1.2,1.1-1.6c0.5-0.4,1-0.8,1.7-1c0.6-0.2,1.3-0.4,2.1-0.4
				c0.8,0,1.5,0.1,2.1,0.4c0.6,0.2,1.2,0.6,1.7,1c0.5,0.4,0.8,1,1.1,1.6c0.3,0.6,0.4,1.3,0.4,2.1c0,0.8-0.1,1.5-0.4,2.1
				c-0.3,0.6-0.6,1.2-1.1,1.6c-0.5,0.5-1,0.8-1.7,1.1c-0.6,0.3-1.3,0.4-2.1,0.4c-0.8,0-1.5-0.1-2.1-0.4c-0.6-0.3-1.2-0.6-1.7-1.1
				c-0.5-0.5-0.8-1-1.1-1.6C161.8,86.7,161.7,86,161.7,85.3z M163.5,85.3c0,0.5,0.1,1,0.2,1.4c0.2,0.4,0.4,0.8,0.7,1.1
				c0.3,0.3,0.7,0.6,1.1,0.8c0.4,0.2,0.9,0.3,1.4,0.3c0.5,0,1-0.1,1.4-0.3c0.4-0.2,0.8-0.4,1.1-0.8c0.3-0.3,0.5-0.7,0.7-1.1
				s0.2-0.9,0.2-1.4c0-0.5-0.1-1-0.2-1.4s-0.4-0.8-0.7-1.1c-0.3-0.3-0.6-0.6-1.1-0.8c-0.4-0.2-0.9-0.3-1.4-0.3c-0.5,0-1,0.1-1.4,0.3
				c-0.4,0.2-0.8,0.4-1.1,0.8c-0.3,0.3-0.5,0.7-0.7,1.1C163.6,84.3,163.5,84.7,163.5,85.3z"/>
			<path class="st0" d="M184.1,86.6c0,0.6-0.1,1.1-0.3,1.6c-0.2,0.5-0.5,0.9-0.8,1.2c-0.4,0.3-0.8,0.6-1.2,0.8
				c-0.5,0.2-1,0.3-1.6,0.3s-1.1-0.1-1.6-0.3c-0.5-0.2-0.9-0.4-1.3-0.8s-0.6-0.7-0.8-1.2c-0.2-0.5-0.3-1-0.3-1.6v-6.2h1.7v6.1
				c0,0.3,0,0.6,0.1,0.9s0.2,0.5,0.4,0.8c0.2,0.2,0.4,0.4,0.7,0.5c0.3,0.1,0.6,0.2,1,0.2s0.8-0.1,1-0.2c0.3-0.1,0.5-0.3,0.7-0.5
				c0.2-0.2,0.3-0.5,0.4-0.8c0.1-0.3,0.1-0.6,0.1-0.9v-6.1h1.7V86.6z"/>
			<path class="st0" d="M188.7,80.4h3.4c0.5,0,0.9,0,1.3,0.1c0.4,0.1,0.8,0.3,1.2,0.5c0.3,0.2,0.6,0.5,0.8,0.9
				c0.2,0.4,0.3,0.8,0.3,1.3c0,0.7-0.2,1.3-0.6,1.7c-0.4,0.4-0.9,0.7-1.6,0.9l2.6,4.3H194l-2.3-4.1h-1.3v4.1h-1.7V80.4z M191.9,84.6
				c0.2,0,0.5,0,0.7-0.1c0.3,0,0.5-0.1,0.7-0.2c0.2-0.1,0.4-0.2,0.5-0.4c0.1-0.2,0.2-0.4,0.2-0.7c0-0.3-0.1-0.5-0.2-0.7
				c-0.1-0.2-0.3-0.3-0.5-0.4c-0.2-0.1-0.4-0.2-0.6-0.2c-0.2,0-0.5-0.1-0.7-0.1h-1.6v2.8H191.9z"/>
			<path class="st0" d="M204.7,80.4h1.9l1.9,7.2h0l2.2-7.2h1.8l2.1,7.2h0l1.9-7.2h1.9l-2.9,9.8h-1.7l-2.3-7.3h0l-2.3,7.3h-1.7
				L204.7,80.4z"/>
			<path class="st0" d="M224.9,80.4h1.5l4.2,9.8h-2l-0.9-2.2h-4.2l-0.9,2.2h-1.9L224.9,80.4z M227.1,86.4l-1.5-4l-1.5,4H227.1z"/>
			<path class="st0" d="M235.6,85.9l-3.7-5.5h2.1l2.5,4.1l2.5-4.1h2l-3.7,5.5v4.2h-1.7V85.9z"/>
			<path class="st0" d="M242.9,89.2c0-0.3,0.1-0.5,0.3-0.8c0.2-0.2,0.5-0.3,0.8-0.3c0.3,0,0.6,0.1,0.8,0.3c0.2,0.2,0.3,0.4,0.3,0.7
				s-0.1,0.5-0.3,0.8c-0.2,0.2-0.5,0.3-0.8,0.3c-0.1,0-0.3,0-0.4-0.1c-0.1-0.1-0.3-0.1-0.4-0.2c-0.1-0.1-0.2-0.2-0.2-0.3
				C242.9,89.5,242.9,89.4,242.9,89.2z"/>
		</g>
		<g>
			<path class="st0" d="M250.3,80c0.5,0,1.1,0.1,1.6,0.4c0.5,0.3,0.9,0.7,1.2,1.2c0.3,0.5,0.4,1.1,0.4,1.6c0,0.6-0.1,1.1-0.4,1.6
				c-0.3,0.5-0.7,0.9-1.2,1.2c-0.5,0.3-1,0.4-1.6,0.4s-1.1-0.1-1.6-0.4c-0.5-0.3-0.9-0.7-1.2-1.2c-0.3-0.5-0.4-1-0.4-1.6
				c0-0.6,0.1-1.1,0.4-1.6c0.3-0.5,0.7-0.9,1.2-1.2C249.2,80.1,249.7,80,250.3,80z M250.3,80.5c-0.5,0-0.9,0.1-1.3,0.3
				c-0.4,0.2-0.8,0.6-1,1c-0.2,0.4-0.4,0.9-0.4,1.3c0,0.5,0.1,0.9,0.4,1.3c0.2,0.4,0.6,0.8,1,1c0.4,0.2,0.9,0.4,1.3,0.4
				c0.5,0,0.9-0.1,1.3-0.4c0.4-0.2,0.8-0.6,1-1c0.2-0.4,0.4-0.9,0.4-1.3c0-0.5-0.1-0.9-0.4-1.3c-0.2-0.4-0.6-0.8-1-1
				C251.2,80.6,250.7,80.5,250.3,80.5z M248.9,85v-3.5h1.2c0.4,0,0.7,0,0.9,0.1c0.2,0.1,0.3,0.2,0.4,0.3c0.1,0.2,0.2,0.3,0.2,0.5
				c0,0.3-0.1,0.5-0.3,0.7c-0.2,0.2-0.4,0.3-0.7,0.3c0.1,0.1,0.2,0.1,0.3,0.2c0.1,0.1,0.3,0.4,0.5,0.7l0.4,0.7h-0.7l-0.3-0.5
				c-0.2-0.4-0.4-0.7-0.6-0.8c-0.1-0.1-0.3-0.1-0.4-0.1h-0.3V85H248.9z M249.4,83h0.7c0.3,0,0.5,0,0.7-0.1c0.1-0.1,0.2-0.2,0.2-0.4
				c0-0.1,0-0.2-0.1-0.3c-0.1-0.1-0.1-0.1-0.2-0.2c-0.1,0-0.3-0.1-0.6-0.1h-0.6V83z"/>
		</g>
	</g>
</g>
</svg>
