<?xml version="1.0" encoding="UTF-8"?><svg id="layer" xmlns="http://www.w3.org/2000/svg" xmlns:xlink="http://www.w3.org/1999/xlink" viewBox="0 0 623.6 248.4"><defs><style>.cls-1{fill:#fff;}.cls-2{clip-path:url(#clippath);}</style><clipPath id="clippath"><path class="cls-1" d="m112.5,1.8c-12.8,4.7-26.3,17.9-40.2,31.2-11.6,11.1-23.9,24-34.9,27.9-13.6,4.9-25.8,2.2-33-6.7-2-2.4-3.5-7.1-3-10.7.1-.7.3-1.5.6-2.3H.6c-.2.6-.4,1.3-.5,2-.1.5-.1,1.1-.1,1.7v.2c0,2.1.5,4.4,1.4,6.4v-.1s6,16,26.3,17.1h4.2c1.7-.1,3.4-.3,5.2-.5,8.4-1.3,22-7.7,36.2-21.5l4.7-4.6c25.6-25,30.2-31.5,43-35.7,7.2-2.4,15.5.4,21.1,7l.9-1.2c-4-7.2-12.4-12-21.4-12-3.2.2-6.2.7-9.1,1.8"/></clipPath></defs><g><path class="cls-1" d="m112.5,1.8c-12.8,4.7-26.3,17.9-40.2,31.2-11.6,11.1-23.9,24-34.9,27.9-13.6,4.9-25.8,2.2-33-6.7-2-2.4-3.5-7.1-3-10.7.1-.7.3-1.5.6-2.3H.6c-.2.6-.4,1.3-.5,2-.1.5-.1,1.1-.1,1.7v.2c0,2.1.5,4.4,1.4,6.4v-.1s6,16,26.3,17.1h4.2c1.7-.1,3.4-.3,5.2-.5,8.4-1.3,22-7.7,36.2-21.5l4.7-4.6c25.6-25,30.2-31.5,43-35.7,7.2-2.4,15.5.4,21.1,7l.9-1.2c-4-7.2-12.4-12-21.4-12-3.2.2-6.2.7-9.1,1.8"/><g class="cls-2"><polygon class="cls-1" points="0 72.4 144.6 68.6 142.7 -3.6 -1.9 .2 0 72.4"/></g></g><g><path class="cls-1" d="m159,119.6c-5.3-.9-6.7-1.7-6.8-6.9-.4-11.4-.4-54.9,0-66.4.1-5.1,1.4-5.9,6.8-6.8l.5-.1,1-2.7-1.3.1c-9.6.4-15.1.4-24.8,0l-1.3-.1,1,2.7.5.1c5.4.9,6.7,1.7,6.8,6.8.4,11.5.4,55,0,66.4-.1,5.2-1.5,6-6.8,6.9l-.5.1-1,2.7,1.3-.1c9.6-.4,15.1-.4,24.8,0l1.3.1-1-2.7-.5-.1Z"/><path class="cls-1" d="m253.9,36.8c-9.5.4-10.9.4-20.4,0l-1.3-.1,1,2.7.5.1c5.4.9,6.5,1.6,6.8,6.8.6,10.8.4,44.7.1,58.5-11.9-14.2-37.9-48.4-51.5-67.7l-.3-.4h-.5c-2.2.1-4.2.2-6.8.2-2.4,0-5.2-.1-8.7-.2l-1.4-.1,1,2.7.5.1c5.4.9,6.5,1.6,6.8,6.8.4,11.5.1,54.4-.5,66.4-.2,5.3-1.5,6-6.8,6.9l-.5.1-1,2.7h1.3c9.5-.4,10.9-.4,20.4,0h1.3l-1-2.7-.5-.1c-5.3-.9-6.5-1.6-6.8-6.9-.6-10.9-.5-48.1-.2-61.9,25.1,32.2,54.5,71.7,54.8,72.1l.1.2,6.1,2.7v-1.4c-.4-11.5-.1-66.5.5-78.2.2-5.2,1.4-5.9,6.8-6.8l.5-.1,1-2.7-1.3.3Z"/><path class="cls-1" d="m345.3,74c-2.2-23.2-20.8-37.6-48.3-37.6-3.5,0-6.8.1-10.2.3-3.7.1-7.4.3-11.8.3-2.9,0-5.7-.1-8.7-.2l-1.4-.1,1,2.7.5.1c5.4.9,6.7,1.6,6.8,6.8.4,11.5.4,55,0,66.4-.1,5.2-1.5,6-6.8,6.9l-.5.1-1,2.7,1.3-.1c2.3-.1,4.5-.1,6.7-.1,4.3,0,7.8.2,11.2.4,3.4.2,6.9.4,11.1.4,1.8,0,3.5,0,5.4-.1,13.1-.5,25.5-6.4,33.9-16,8.1-9.2,11.9-20.9,10.8-32.9m-20.7,31.7c-6.5,7.5-15.9,11.8-26.6,12.1-1,0-1.9.1-2.8.1-9.3,0-11.1-2.2-11.2-6.6-.7-25.9-.3-57.2.1-69.2,3.4-.5,6.9-.8,10.2-.8,16,0,35.7,5.8,38.9,33.3,1.4,12-1.6,23-8.6,31.1"/><path class="cls-1" d="m386.2,78.2c-2.9-1.9-5.6-3.5-8.2-5-3.4-1.9-6.3-3.6-9.1-5.8-5.4-4.1-7.8-7-7.8-13.2,0-7.1,6.7-12.8,14.8-12.8,8.7,0,13.1,3.5,15.2,12.2l.2.7h2.5l-.7-16.3-.6-.2c-2.6-.8-6.7-1.9-12.5-1.9-.8,0-1.6,0-2.4.1-10.5.4-23.2,6.2-24.3,21.3-.7,8.7,3.1,16.1,11.4,22,2.7,1.9,4.9,3.2,7.1,4.5,2,1.2,4.1,2.5,6.5,4.2,5.7,3.8,11.8,8.5,11.8,15.9s-6.8,13.8-14.6,13.8c-6.1,0-17-2-21.2-15.7l-.2-.8-2.8.6,3.9,17.8.4.2c.3.2,8.3,3.7,18.8,3.7,11.4,0,24.5-8.2,25.6-21.5.8-12.2-6.9-19.1-13.8-23.8"/><path class="cls-1" d="m473.2,36.8c-13.1.5-25.6.7-37.3.7s-21.8-.2-30-.7h-.8l-.2.7c-1.2,5.1-4.1,13.9-4.1,14l-.2.7,2.3,1.3.4-.9c3.2-6.7,6.9-7.3,10.1-7.9,5.8-.9,14.4-1.1,18.6-1.1.4,13.2.6,58,.2,69.1-.2,5.2-1.6,6-6.9,6.9l-.5.1-1,2.7,1.3-.1c9.6-.4,15.2-.4,24.9,0l1.3.1-1-2.7-.5-.1c-5.3-.9-6.7-1.7-6.9-6.9-.3-11-.2-55.9.2-69.1.9,0,2.1-.1,3.5-.1,4.8,0,11,.2,15.1.6,4.4.4,5,1.9,5.2,7.6v.5l2.3,1.3.3-1.1c2-7.6,4.4-14.4,4.5-14.5l.4-1.2-1.2.1Z"/><path class="cls-1" d="m611.2,119.6c-4.5-.6-6.8-2-10.1-6.2-4.8-6.3-13.6-22.4-18.7-32.4,5.3-2.1,16.3-9,16.3-21.6,0-20.8-18-23.1-25.8-23.1h-1.7c-6.8.4-12.5.6-17.9.6-3.3,0-6.7-.1-10.2-.2h-1.3l1,2.7.5.1c5.4.9,6.6,1.6,6.8,6.8.4,11.5.4,55,0,66.4-.1,5.2-1.5,6-6.8,6.9l-.5.1-1,2.7,1.3-.1c9.6-.4,15.1-.4,24.8,0l1.3.1-1-2.7-.5-.1c-5.3-.9-6.7-1.7-6.8-6.9-.2-4.3-.2-34.4-.2-34.7,0-13.9.2-28.8.3-35.9,2.7-.4,5.2-.6,7.5-.6,12.3,0,18.6,6,18.6,17.9s-9,19.1-17.6,19.5q-4.1.3-5.7.2l-1.9-.1,3.7,4.9h5.9c4.2,7.1,7.5,13.6,10.4,19.2,2.1,4.1,3.9,7.6,5.7,10.7,4.6,7.9,8.1,8.8,13.3,8.6,2.9-.1,6-.1,9.5,0h.6l1.3-2.6-1.1-.2Z"/><path class="cls-1" d="m539.8,119.6l-.6-.1c-4.7-.5-6.7-2-9.1-7.1-4.9-10.8-26.1-65.7-30.6-78.6l-.9-2.5-.8,2.5c-4.5,13.5-19.4,54.6-29.2,78.6-2.2,5.1-3.5,6.2-8.9,7.1l-.5.1-1,2.7,1.4-.1c6.3-.4,14.2-.4,20.5,0l1.4.1-1-2.7-.5-.1c-2.4-.4-4.1-.9-4.7-1.9-.5-.9-.5-2.3.2-4.6,1-3.3,2.9-8.7,5.1-15,0,0,12.8-35.3,15.7-43,3.3,8.1,10.8,27.7,12.7,32.8h-23.5l3.8,5.1h21.6c2.2,5.9,6.2,16.9,7.3,20.2.8,2.2.9,3.8.4,4.7-.5.9-1.8,1.4-4.4,1.8l-.5.1-1.4,2.8,1.6-.1c2-.1,6.8-.2,12-.2,4.9,0,9.8.1,13.6.2l1.3.1-1-2.9Z"/><path class="cls-1" d="m130.4,18.5c-7.2.4-14.1.4-21.3,0l-1.6-.1,1.5,2.9.5.1c2.6.5,2.5,1,3.2,2.1.6,1,.6,2.7-.1,5.2-3.4,12.3-14.5,54.4-19.6,69.1-4.9-15.6-14.8-53.7-19-69.5h0c-.6-2.3-.6-3.9,0-4.8.7-1.1,1.3-1.6,3.9-2.1l.5-.1,1.5-2.9-1.6.1c-4.3.2-7.8.4-12.6.3-1.2,0-11.8-.2-16.1-.3l-1.4-.1,1.1,2.9.6.1c5.2.5,8.1,1.8,10.3,7.8l3.4,10.8c-5,17.4-12.9,46.4-16.8,57.7-4.9-15.6-14.2-53.8-18.4-69.6-.6-2.3-.6-3.8,0-4.7.7-1.1,2.5-1.6,5.1-2.1l.4-.1,1.5-2.9-1.6.1c-4.3.2-9.1.4-13.9.3-1.1,0-11.7-.2-16-.3l-1.4-.1,1.1,2.9.6.1c5.2.5,8.1,1.8,10.2,7.9,4.8,13.2,21.8,80.5,25.1,92.9h8.4c2.5-8.9,12.2-49.1,19.6-72.3,6.8,23.3,15.8,63.5,18.1,72.3h8.4c3.4-12.4,20.9-79.6,25.4-92.9,2.1-5.9,4.4-6.8,10.5-7.9l.5-.1,1.5-2.9-1.5.2Z"/><path class="cls-1" d="m116.9,177.8c-.8,5.1-8.1,8.4-14.5,9.2-.6.1-1.2.1-1.9.1-8.2,0-17.2-6.8-18.2-18.3-.6-6.6,1.2-12.9,4.9-17.3,2.9-3.5,6.9-5.5,11.3-5.8,4.5-.3,7.8.2,12,2,2.5,1.1,4.9,2.7,5.6,7l.1.4h1.6l-.2-8.4-.3-.1c-4.1-2.1-11-4.2-17.2-4.2-1,0-2,.1-2.9.2-13.1,1.5-23,13.7-21.5,26.5,1.4,12.3,11.4,21.2,23.8,21.2.8,0,1.6,0,2.4-.1,5.9-.6,11.1-2.3,15.3-5.1l.2-.1,1.2-7.6h-1.7v.4Z"/><path class="cls-1" d="m191.4,184.6c-2.6-3.4-7.3-12.1-10.1-17.4,2.9-1.2,8.8-4.9,8.8-11.7,0-11.3-9.8-12.5-14-12.5h-.9c-5.9.3-10.2.4-15.2.2h-.8l.6,1.5.3.1c2.9.5,3.6.9,3.6,3.6.2,6.2.2,29.7,0,35.9-.1,2.8-.7,3.2-3.6,3.7l-.3.1-.6,1.5h.8c5.2-.2,8.2-.2,13.4,0h.8l-.6-1.6-.3-.1c-2.9-.5-3.6-.9-3.6-3.7-.1-2.5-.1-8.7-.1-15.3,2.2-.2,4.8-.4,5.7-.5,2.2,3.8,4.1,7.4,5.7,10.6,1.2,2.3,2.2,4.2,3.1,5.9,2.5,4.3,4.4,4.8,7.2,4.6,1.6-.1,3.2-.1,5.1,0h.3l.7-1.5-.7-.1c-2.3-.3-3.6-1.1-5.3-3.3m-21.8-18.6c0-8,.1-16.2.2-19.9,1.4-.2,2.8-.3,4-.3,6.6,0,10,3.2,10,9.6s-4.9,10.3-9.5,10.5c-2,.1-3.8.1-4.7.1"/><path class="cls-1" d="m274.6,144.8l.3-.1.6-1.5h-.8c-5.2.2-8.2.2-13.4,0h-.9l.8,1.6h.3c2.9.5,3.5.9,3.6,3.6.2,5.9.1,20.7.1,32.6-4,3.5-8.1,5.2-12.8,5.2-7,0-10.4-3.5-10.7-11-.3-6.4-.2-20.8,0-26.8.1-2.8.7-3.1,3.6-3.6l.3-.1.6-1.5h-.8c-5.2.2-8.2.2-13.4,0h-.8l.6,1.5.3.1c2.9.5,3.6.9,3.6,3.6.1,3.7.1,10.5,0,16.4,0,4.1-.1,7.9,0,10.4.2,9.4,5.7,14.8,15,14.8,4.7,0,9.5-1.7,13.8-4.9l.1-.1.1-.1c.1-.4.3-.8.5-1.1-.1,2.7-.2,5.1-.2,5.1v.7l.7-.1c1.1-.2,4.3-.2,9.2,0h.8l-.6-1.5-.3-.1c-2.9-.5-3.6-.9-3.7-3.7-.2-6.2-.2-29.6,0-35.9-.1-2.7.6-3.1,3.5-3.5"/><path class="cls-1" d="m331.3,144.8l.3-.1.6-1.5h-.8c-5.2.2-8.2.2-13.4,0h-.8l.6,1.5.3.1c2.9.5,3.6.9,3.6,3.6.2,6.2.2,29.7,0,35.9-.1,2.8-.7,3.2-3.6,3.7l-.3.1-.6,1.5h.8c5.2-.2,8.2-.2,13.4,0h.8l-.6-1.6-.3-.1c-2.9-.5-3.6-.9-3.6-3.7-.2-6.2-.2-29.6,0-35.9,0-2.7.7-3.1,3.6-3.5"/><path class="cls-1" d="m392,165.6c-1.6-1.1-3-1.9-4.4-2.7-1.8-1-3.4-2-4.9-3.1-2.9-2.2-4.2-3.7-4.2-7.1,0-3.8,3.6-6.9,8-6.9,4.7,0,7,1.9,8.2,6.5l.1.4h1.4l-.4-8.9-.3-.1c-1.6-.5-4.3-1.2-8.1-1-5.7.2-12.6,3.3-13.2,11.5-.4,4.7,1.7,8.7,6.2,11.9,1.5,1,2.7,1.7,3.8,2.5,1.1.7,2.2,1.3,3.5,2.3,3.1,2.1,6.4,4.6,6.4,8.5s-3.7,7.4-7.8,7.4c-3.3,0-9.2-1.1-11.4-8.5l-.1-.5-1.6.3,2.1,9.7.2.1c.2.1,4.5,2,10.2,2,6.2,0,13.3-4.5,13.9-11.7.3-6.4-3.9-10.1-7.6-12.6"/><path class="cls-1" d="m469.6,181.1c-1.2,3.3-2.9,4.4-7.5,4.8-1.4.1-2.9.2-4.5.2-3.2,0-5.8-.2-6.8-.3-.1-3.4-.1-11.1-.1-19.1,5.2,0,9.8.1,12.1.1,2.8.1,3.1.7,3.4,3.6v.3l1.5.6v-1.1c.1-4.6.1-5.6.6-10.4l.1-.8-1.6.6-.1.3c-.7,2.9-1.1,3.5-3.9,3.6-2.3.1-6.9.1-12.2.1,0-7.2.1-13.8.1-16.7,2.9-.5,6.5-.6,10.7-.4,4.7.2,5.6.9,7,5.3l.1.5,1.6-.3-1.5-8.8h-.5c-4.8.3-10.4.3-14.4.3-5.5,0-10.3-.1-12.7-.2h-.8l.6,1.5.3.1c2.9.5,3.6.9,3.6,3.6.2,6.2.2,29.7,0,35.9-.1,2.8-.7,3.2-3.6,3.7h-.3l-.6,1.6.8-.1c2.7-.2,5.3-.3,8-.3,3,0,5.8.1,8.5.2s5.4.2,8.3.2h2.9l2.6-8.6-1.6-.4-.1.4Z"/><path class="cls-1" d="m530.1,165.6c-1.6-1.1-3-1.9-4.4-2.7-1.8-1-3.4-2-4.9-3.1-2.9-2.2-4.2-3.7-4.2-7.1,0-3.8,3.6-6.9,8-6.9,4.7,0,7,1.9,8.2,6.5l.1.4h1.4l-.4-8.9-.3-.1c-1.6-.5-4.3-1.2-8.1-1-5.7.2-12.6,3.3-13.2,11.5-.4,4.7,1.7,8.7,6.2,11.9,1.5,1,2.6,1.7,3.8,2.5,1.1.7,2.2,1.3,3.5,2.3,3.1,2.1,6.4,4.6,6.4,8.5s-3.7,7.4-7.8,7.4c-3.3,0-9.2-1.1-11.4-8.5l-.1-.5-1.6.3,2.1,9.7.2.1c.2.1,4.5,2,10.2,2,6.2,0,13.3-4.5,13.9-11.7.3-6.4-3.9-10.1-7.6-12.6"/><path class="cls-1" d="m611.2,51.9c-4.1,0-7.5-3.4-7.5-7.5s3.4-7.5,7.5-7.5,7.5,3.4,7.5,7.5-3.3,7.5-7.5,7.5m0-14.2c-3.6,0-6.6,3-6.6,6.7s3,6.7,6.6,6.7,6.6-3,6.6-6.7c0-3.7-2.9-6.7-6.6-6.7m3,11.2l-2.7-4.1h-2.3v4h-.9l-.1-8.9,3.4-.1c2,0,3,.8,3,2.5s-1.3,2.3-2.4,2.4l2.7,4h-.7v.2Zm-4.9-4.9h2.2c1.1,0,2.4-.3,2.4-1.6,0-1.4-1.2-1.7-2.2-1.7h-2.4v3.3Z"/><polygon class="cls-1" points="150.6 11.1 152.4 18.1 160.2 19 153.6 24.1 153.2 32 147.5 28 139.1 31.8 142.2 24.1 137.5 18.7 145.5 18 150.6 11.1"/><polygon class="cls-1" points="14.4 226.8 9.8 228.1 8.9 224.5 15.7 222.3 18.8 222.3 18.8 248 14.4 248 14.4 226.8"/><path class="cls-1" d="m35.9,241h0c0-3.1,1.7-5.1,4.6-6.3-2.1-1.1-3.7-2.8-3.7-5.7h0c0-3.9,3.8-6.9,8.9-6.9s8.9,3,8.9,6.9v.1c0,2.8-1.6,4.6-3.7,5.7,2.8,1.3,4.6,3.1,4.6,6.1v.1c0,4.6-4.2,7.4-9.7,7.4s-9.9-3-9.9-7.4m15.1-.2h0c0-2.4-2.3-3.9-5.4-3.9s-5.3,1.5-5.3,3.9v.1c0,2.1,2,3.8,5.3,3.8,3.4-.1,5.4-1.8,5.4-3.9m-.8-11.3h0c0-2-1.8-3.6-4.6-3.6s-4.6,1.6-4.6,3.5v.1c0,2.2,1.9,3.8,4.6,3.8s4.6-1.6,4.6-3.8"/><path class="cls-1" d="m71.1,235.3h0c0-7.4,4.4-13.3,11.2-13.3s11.1,5.8,11.1,13.1v.1c0,7.3-4.4,13.2-11.2,13.2-6.8,0-11.1-5.8-11.1-13.1m17.6,0h0c0-5.1-2.6-9.2-6.5-9.2s-6.4,4-6.4,9.1v.1c0,5,2.5,9.2,6.5,9.2,3.9-.1,6.4-4.2,6.4-9.2"/><path class="cls-1" d="m93.9,222.3c0-2.3,1.9-4.1,4.2-4.1s4.2,1.8,4.2,4.1-1.9,4.1-4.2,4.1-4.2-1.8-4.2-4.1m6.6,0c0-1.4-1.1-2.4-2.4-2.4-1.4,0-2.4,1.1-2.4,2.4,0,1.4,1.1,2.4,2.4,2.4,1.3,0,2.4-1.1,2.4-2.4"/><polygon class="cls-1" points="137.8 222.5 156.8 222.5 156.8 226.6 142.3 226.6 142.3 233.5 155.1 233.5 155.1 237.6 142.3 237.6 142.3 248 137.8 248 137.8 222.5"/><path class="cls-1" d="m173.5,222.5h11.4c3.2,0,5.7.9,7.4,2.5,1.3,1.4,2.1,3.3,2.1,5.5v.1c0,4.2-2.5,6.7-6.1,7.7l6.9,9.7h-5.3l-6.3-8.9h-5.6v8.9h-4.5v-25.5h0Zm11.1,12.6c3.2,0,5.2-1.7,5.2-4.3v-.1c0-2.7-2-4.2-5.3-4.2h-6.5v8.6h6.6Z"/><path class="cls-1" d="m210.6,235.3h0c0-7.3,5.5-13.3,13.4-13.3s13.3,5.9,13.3,13.1v.1c0,7.2-5.5,13.2-13.4,13.2-7.8,0-13.3-5.9-13.3-13.1m22,0h0c0-5-3.6-9.2-8.7-9.2s-8.6,4-8.6,9v.1c0,5,3.6,9,8.7,9s8.6-3.9,8.6-8.9"/><polygon class="cls-1" points="254.5 222.5 259.3 222.5 267.1 234.5 274.8 222.5 279.6 222.5 279.6 248 275.1 248 275.1 229.7 267.1 241.7 266.9 241.7 258.9 229.8 258.9 248 254.5 248 254.5 222.5"/><path class="cls-1" d="m319.7,235.3h0c0-7.3,5.5-13.3,13.4-13.3s13.3,5.9,13.3,13.1v.1c0,7.2-5.5,13.2-13.4,13.2-7.9,0-13.3-5.9-13.3-13.1m21.9,0h0c0-5-3.6-9.2-8.7-9.2s-8.6,4-8.6,9v.1c0,5,3.6,9,8.7,9,5.1.1,8.6-3.9,8.6-8.9"/><path class="cls-1" d="m363.6,222.5h11.4c3.2,0,5.7.9,7.4,2.5,1.3,1.4,2.1,3.3,2.1,5.5v.1c0,4.2-2.5,6.7-6.1,7.7l6.9,9.7h-5.3l-6.3-8.9h-5.6v8.9h-4.5v-25.5Zm11,12.6c3.2,0,5.2-1.7,5.2-4.3v-.1c0-2.7-2-4.2-5.3-4.2h-6.5v8.6h6.6Z"/><path class="cls-1" d="m401.8,222.5h9.5c8,0,13.6,5.5,13.6,12.7v.1c0,7.2-5.5,12.8-13.6,12.8h-9.5v-25.6Zm4.5,4.1v17.3h5c5.4,0,8.9-3.6,8.9-8.6v-.1c0-5-3.5-8.7-8.9-8.7h-5v.1Z"/><rect class="cls-1" x="442.4" y="222.5" width="4.5" height="25.5"/><polygon class="cls-1" points="465.5 222.5 469.7 222.5 483.3 240.1 483.3 222.5 487.7 222.5 487.7 248 484 248 469.9 229.8 469.9 248 465.5 248 465.5 222.5"/><path class="cls-1" d="m515.2,222.3h4.2l11.2,25.7h-4.7l-2.6-6.2h-12.1l-2.6,6.2h-4.6l11.2-25.7Zm6.4,15.6l-4.4-10.2-4.4,10.2h8.8Z"/><path class="cls-1" d="m546.7,222.5h11.4c3.2,0,5.7.9,7.4,2.5,1.3,1.4,2.1,3.3,2.1,5.5v.1c0,4.2-2.5,6.7-6.1,7.7l6.9,9.7h-5.3l-6.3-8.9h-5.6v8.9h-4.5v-25.5h0Zm11.1,12.6c3.2,0,5.2-1.7,5.2-4.3v-.1c0-2.7-2-4.2-5.3-4.2h-6.5v8.6h6.6Z"/><polygon class="cls-1" points="591.5 237.9 581.4 222.5 586.7 222.5 593.8 233.7 601 222.5 606.2 222.5 596 237.8 596 248 591.5 248 591.5 237.9"/><path class="cls-1" d="m618.2,232.9c-3,0-5.4-2.4-5.4-5.4s2.4-5.4,5.4-5.4,5.4,2.4,5.4,5.4c-.1,3-2.5,5.4-5.4,5.4m0-10.1c-2.6,0-4.7,2.1-4.7,4.7s2.1,4.7,4.7,4.7,4.7-2.1,4.7-4.7c-.1-2.6-2.2-4.7-4.7-4.7m2.1,7.9l-1.9-2.9h-1.6v2.8h-.6v-6.4l2.5-.1c1.4,0,2.1.6,2.1,1.8,0,1-.6,1.6-1.7,1.8l1.9,2.9h-.7v.1Zm-3.5-3.4h1.6c.8,0,1.7-.2,1.7-1.1,0-1-.8-1.2-1.5-1.2h-1.7v2.3h-.1Z"/></g></svg>